<?xml version="1.0" encoding="utf-8"?>
<!-- Generator: Adobe Illustrator 18.0.0, SVG Export Plug-In . SVG Version: 6.00 Build 0)  -->
<!DOCTYPE svg PUBLIC "-//W3C//DTD SVG 1.1//EN" "http://www.w3.org/Graphics/SVG/1.1/DTD/svg11.dtd">
<svg version="1.1" id="Layer_1" xmlns="http://www.w3.org/2000/svg" xmlns:xlink="http://www.w3.org/1999/xlink" x="0px" y="0px"
	 width="16.7px" height="16.7px" viewBox="6.2 258.1 16.7 16.7" enable-background="new 6.2 258.1 16.7 16.7" xml:space="preserve">
<path d="M16.2,266.4l6.3-6.3c0.5-0.5,0.5-1.2,0-1.7c-0.5-0.5-1.2-0.5-1.7,0l-6.3,6.3l-0.9-0.9l-5.4-5.4c-0.5-0.5-1.2-0.5-1.7,0
	c-0.5,0.5-0.5,1.2,0,1.7l5.4,5.4l0.9,0.9l-0.9,0.9l-5.4,5.4c-0.5,0.5-0.5,1.2,0,1.7c0.5,0.5,1.2,0.5,1.7,0l5.4-5.4l0.9-0.9l6.3,6.3
	c0.5,0.5,1.2,0.5,1.7,0c0.5-0.5,0.5-1.2,0-1.7L16.2,266.4z"/>
</svg>
