<?xml version="1.0" encoding="utf-8"?>
<!-- Generator: Adobe Illustrator 18.0.0, SVG Export Plug-In . SVG Version: 6.00 Build 0)  -->
<!DOCTYPE svg PUBLIC "-//W3C//DTD SVG 1.1//EN" "http://www.w3.org/Graphics/SVG/1.1/DTD/svg11.dtd">
<svg version="1.1" id="Layer_1" xmlns="http://www.w3.org/2000/svg" xmlns:xlink="http://www.w3.org/1999/xlink" x="0px" y="0px"
	 width="29px" height="20.9px" viewBox="0 256.4 29 20.9" enable-background="new 0 256.4 29 20.9" xml:space="preserve">
<path d="M27.8,268.1H1.2c-0.7,0-1.2-0.5-1.2-1.2s0.5-1.2,1.2-1.2h26.6c0.7,0,1.2,0.5,1.2,1.2S28.5,268.1,27.8,268.1z"/>
<path d="M27.8,258.8H1.2c-0.7,0-1.2-0.5-1.2-1.2c0-0.7,0.5-1.2,1.2-1.2h26.6c0.7,0,1.2,0.5,1.2,1.2C29,258.3,28.5,258.8,27.8,258.8z
	"/>
<path d="M27.8,277.3H1.2c-0.7,0-1.2-0.5-1.2-1.2c0-0.7,0.5-1.2,1.2-1.2h26.6c0.7,0,1.2,0.5,1.2,1.2C29,276.8,28.5,277.3,27.8,277.3z
	"/>
</svg>
